<?xml version="1.0" encoding="UTF-8"?><svg id="uuid-319b81be-493d-4bb0-bee3-59cd826d7c7e" xmlns="http://www.w3.org/2000/svg" viewBox="0 0 376.81 481.63"><g><rect x="135.03" y="116.34" width="104.32" height="104.32" rx="12" ry="12" transform="translate(-64.32 181.72) rotate(-45)" style="fill:#cf2027;"/><path d="M260.49,184.01c4.27-4.27,9.89-6.4,15.52-6.4v57.75c0,12.07-9.87,21.94-21.94,21.94h-57.75c0-5.62,2.13-11.25,6.4-15.52l57.78-57.78Z" style="fill:none;"/><path d="M202.71,95.21c-4.27-4.27-6.4-9.89-6.4-15.52h57.75c12.07,0,21.94,9.87,21.94,21.94v57.75c-5.62,0-11.25-2.13-15.52-6.4l-57.78-57.78Z" style="fill:none;"/><path d="M171.68,241.79c4.27,4.27,6.4,9.89,6.4,15.52h-57.75c-12.07,0-21.94-9.87-21.94-21.94v-57.75c5.62,0,11.25,2.13,15.52,6.4l57.78,57.78Z" style="fill:none;"/><path d="M120.33,79.69h57.75c0,5.62-2.13,11.25-6.4,15.52l-57.78,57.78c-4.27,4.27-9.89,6.4-15.52,6.4v-57.75c0-12.07,9.87-21.94,21.94-21.94Z" style="fill:none;"/><g><path d="M276,235.36v-57.75c5.62,0,11.25,2.13,15.52,6.4l57.78,57.78c8.53,8.53,8.53,22.5,0,31.03l-57.78,57.78c-8.53,8.53-22.5,8.53-31.03,0l-57.78-57.78c-4.27-4.27-6.4-9.89-6.4-15.52h57.75c12.07,0,21.94-9.87,21.94-21.94Z" style="fill:#2a8440;"/><path d="M171.68,64.18c4.27,4.27,6.4,9.89,6.4,15.52h-57.75c-12.07,0-21.94,9.87-21.94,21.94v57.75c-5.62,0-11.25-2.13-15.52-6.4L25.09,95.21c-8.53-8.53-8.53-22.5,0-31.03L82.87,6.4c8.53-8.53,22.5-8.53,31.03,0l57.78,57.78Z" style="fill:#d75427;"/><path d="M254.06,79.69h-57.75c0-5.62,2.13-11.25,6.4-15.52L260.49,6.4c8.53-8.53,22.5-8.53,31.03,0l57.78,57.78c8.53,8.53,8.53,22.5,0,31.03l-57.78,57.78c-4.27,4.27-9.89,6.4-15.52,6.4v-57.75c0-12.07-9.87-21.94-21.94-21.94Z" style="fill:#c51d6a;"/><path d="M120.33,257.31h57.75c0,5.62-2.13,11.25-6.4,15.52l-57.78,57.78c-8.53,8.53-22.5,8.53-31.03,0l-57.78-57.78c-8.53-8.53-8.53-22.5,0-31.03l57.78-57.78c4.27-4.27,9.89-6.4,15.52-6.4v57.75c0,12.07,9.87,21.94,21.94,21.94Z" style="fill:#542972;"/></g><g><path d="M171.68,241.79c4.27,4.27,6.4,9.89,6.4,15.52h-57.75c-12.07,0-21.94-9.87-21.94-21.94v-57.75c5.62,0,11.25,2.13,15.52,6.4l57.78,57.78Z" style="fill:#973385;"/><path d="M202.71,241.79l57.78-57.78c4.27-4.27,9.89-6.4,15.52-6.4v57.75c0,12.07-9.87,21.94-21.94,21.94h-57.75c0-5.62,2.13-11.25,6.4-15.52Z" style="fill:#92bc3e;"/><path d="M113.9,152.98c-4.27,4.27-9.89,6.4-15.52,6.4v-57.75c0-12.07,9.87-21.94,21.94-21.94h57.75c0,5.62-2.13,11.25-6.4,15.52l-57.78,57.78Z" style="fill:#eeac1f;"/><path d="M276,101.63v57.75c-5.62,0-11.25-2.13-15.52-6.4l-57.78-57.78c-4.27-4.27-6.4-9.89-6.4-15.52h57.75c12.07,0,21.94,9.87,21.94,21.94Z" style="fill:#2f9287;"/></g></g><g><path d="M133.97,481.63h-39.97l-63.33-58.78v58.78H0v-132.83H30.67v59.28l64.71-59.28h36.41l-71.44,65.26,73.62,67.58Z" style="fill:#542972;"/><rect x="144.26" y="388.85" width="28.89" height="92.78" style="fill:#d75427;"/><rect x="143.87" y="348.79" width="29.68" height="24.04" style="fill:#eeac1f;"/><path d="M316.45,414.05l-71.44-65.26h36.41s64.71,59.28,64.71,59.28v-59.28h30.67v132.83h-30.67v-58.78s-63.33,58.78-63.33,58.78h-39.97s73.62-67.58,73.62-67.58Z" style="fill:#2a8440;"/><rect x="203.65" y="388.85" width="28.89" height="92.78" style="fill:#c51d6a;"/><rect x="203.26" y="348.79" width="29.68" height="24.04" style="fill:#2f9287;"/></g></svg>