<?xml version="1.0" encoding="UTF-8"?>
<svg id="Calque_1" data-name="Calque 1" xmlns="http://www.w3.org/2000/svg" viewBox="0 0 382.48 484.46">
  <defs>
    <style>
      .cls-1 {
        fill: none;
      }

      .cls-2 {
        fill: #eeac1f;
      }

      .cls-3 {
        fill: #c51d6a;
      }

      .cls-4 {
        fill: #2f9287;
      }

      .cls-5 {
        fill: #92bc3e;
      }

      .cls-6 {
        fill: #cf2027;
      }

      .cls-7 {
        fill: #d75427;
      }

      .cls-8 {
        fill: #973385;
      }

      .cls-9 {
        fill: #542972;
      }

      .cls-10 {
        fill: #2a8440;
      }
    </style>
  </defs>
  <g>
    <rect class="cls-6" x="139.08" y="116.34" width="104.32" height="104.32" rx="12" ry="12" transform="translate(-63.13 184.58) rotate(-45)"/>
    <path class="cls-1" d="M264.53,184.01c4.27-4.27,9.89-6.4,15.52-6.4v57.75c0,12.07-9.87,21.94-21.94,21.94h-57.75c0-5.62,2.13-11.25,6.4-15.52l57.78-57.78Z"/>
    <path class="cls-1" d="M206.75,95.21c-4.27-4.27-6.4-9.89-6.4-15.52h57.75c12.07,0,21.94,9.87,21.94,21.94v57.75c-5.62,0-11.25-2.13-15.52-6.4l-57.78-57.78Z"/>
    <path class="cls-1" d="M175.72,241.79c4.27,4.27,6.4,9.89,6.4,15.52h-57.75c-12.07,0-21.94-9.87-21.94-21.94v-57.75c5.62,0,11.25,2.13,15.52,6.4l57.78,57.78Z"/>
    <path class="cls-1" d="M124.37,79.69h57.75c0,5.62-2.13,11.25-6.4,15.52l-57.78,57.78c-4.27,4.27-9.89,6.4-15.52,6.4v-57.75c0-12.07,9.87-21.94,21.94-21.94Z"/>
    <g>
      <path class="cls-10" d="M280.04,235.36v-57.75c5.62,0,11.25,2.13,15.52,6.4l57.78,57.78c8.53,8.53,8.53,22.5,0,31.03l-57.78,57.78c-8.53,8.53-22.5,8.53-31.03,0l-57.78-57.78c-4.27-4.27-6.4-9.89-6.4-15.52h57.75c12.07,0,21.94-9.87,21.94-21.94Z"/>
      <path class="cls-7" d="M175.72,64.18c4.27,4.27,6.4,9.89,6.4,15.52h-57.75c-12.07,0-21.94,9.87-21.94,21.94v57.75c-5.62,0-11.25-2.13-15.52-6.4L29.14,95.21c-8.53-8.53-8.53-22.5,0-31.03L86.92,6.4c8.53-8.53,22.5-8.53,31.03,0l57.78,57.78Z"/>
      <path class="cls-3" d="M258.1,79.69h-57.75c0-5.62,2.13-11.25,6.4-15.52L264.53,6.4c8.53-8.53,22.5-8.53,31.03,0l57.78,57.78c8.53,8.53,8.53,22.5,0,31.03l-57.78,57.78c-4.27,4.27-9.89,6.4-15.52,6.4v-57.75c0-12.07-9.87-21.94-21.94-21.94Z"/>
      <path class="cls-9" d="M124.37,257.31h57.75c0,5.62-2.13,11.25-6.4,15.52l-57.78,57.78c-8.53,8.53-22.5,8.53-31.03,0l-57.78-57.78c-8.53-8.53-8.53-22.5,0-31.03l57.78-57.78c4.27-4.27,9.89-6.4,15.52-6.4v57.75c0,12.07,9.87,21.94,21.94,21.94Z"/>
    </g>
    <g>
      <path class="cls-8" d="M175.72,241.79c4.27,4.27,6.4,9.89,6.4,15.52h-57.75c-12.07,0-21.94-9.87-21.94-21.94v-57.75c5.62,0,11.25,2.13,15.52,6.4l57.78,57.78Z"/>
      <path class="cls-5" d="M206.75,241.79l57.78-57.78c4.27-4.27,9.89-6.4,15.52-6.4v57.75c0,12.07-9.87,21.94-21.94,21.94h-57.75c0-5.62,2.13-11.25,6.4-15.52Z"/>
      <path class="cls-2" d="M117.95,152.98c-4.27,4.27-9.89,6.4-15.52,6.4v-57.75c0-12.07,9.87-21.94,21.94-21.94h57.75c0,5.62-2.13,11.25-6.4,15.52l-57.78,57.78Z"/>
      <path class="cls-4" d="M280.04,101.63v57.75c-5.62,0-11.25-2.13-15.52-6.4l-57.78-57.78c-4.27-4.27-6.4-9.89-6.4-15.52h57.75c12.07,0,21.94,9.87,21.94,21.94Z"/>
    </g>
  </g>
  <g>
    <path class="cls-9" d="M96.83,484.46c-.72,0-1.4-.27-1.93-.76l-58.56-54.36v52.28c0,1.57-1.27,2.83-2.83,2.83H2.83c-1.57,0-2.83-1.27-2.83-2.83v-132.83c0-1.57,1.27-2.83,2.83-2.83h30.67c1.57,0,2.83,1.27,2.83,2.83v52.84l59.96-54.93c.52-.48,1.21-.75,1.91-.75h36.41c1.17,0,2.22,.72,2.64,1.81,.42,1.09,.13,2.33-.73,3.12l-69.15,63.17,71.34,65.49c.86,.79,1.15,2.03,.72,3.12-.42,1.09-1.47,1.81-2.64,1.81h-39.97Z"/>
    <path class="cls-9" d="M136.81,481.63h-39.97l-63.33-58.78v58.78H2.83v-132.83h30.67v59.28l64.71-59.28h36.41l-71.44,65.26,73.62,67.58Z"/>
    <path class="cls-7" d="M147.1,386.02h28.89c1.56,0,2.83,1.27,2.83,2.83v92.78c0,1.56-1.27,2.83-2.83,2.83h-28.89c-1.56,0-2.83-1.27-2.83-2.83v-92.78c0-1.56,1.27-2.83,2.83-2.83Z"/>
    <rect class="cls-7" x="147.1" y="388.85" width="28.89" height="92.78"/>
    <path class="cls-2" d="M146.7,345.96h29.68c1.56,0,2.83,1.27,2.83,2.83v24.04c0,1.56-1.27,2.83-2.83,2.83h-29.68c-1.56,0-2.83-1.27-2.83-2.83v-24.04c0-1.56,1.27-2.83,2.83-2.83Z"/>
    <rect class="cls-2" x="146.7" y="348.79" width="29.68" height="24.04"/>
    <path class="cls-10" d="M348.97,484.46c-1.57,0-2.83-1.27-2.83-2.83v-52.28l-58.56,54.36c-.52,.49-1.21,.76-1.93,.76h-39.97c-1.17,0-2.22-.72-2.64-1.81s-.14-2.33,.72-3.12l71.34-65.49-69.15-63.17c-.86-.79-1.15-2.03-.73-3.12s1.47-1.81,2.64-1.81h36.41c.71,0,1.39,.27,1.92,.75l59.96,54.93v-52.84c0-1.57,1.27-2.83,2.83-2.83h30.67c1.57,0,2.83,1.27,2.83,2.83v132.83c0,1.57-1.27,2.83-2.83,2.83h-30.67Z"/>
    <path class="cls-10" d="M319.28,414.05l-71.44-65.26h36.41s64.71,59.28,64.71,59.28v-59.28h30.67v132.83h-30.67v-58.78s-63.33,58.78-63.33,58.78h-39.97s73.62-67.58,73.62-67.58Z"/>
    <rect class="cls-3" x="203.65" y="386.02" width="34.56" height="98.45" rx="2.83" ry="2.83"/>
    <rect class="cls-3" x="206.49" y="388.85" width="28.89" height="92.78"/>
    <rect class="cls-4" x="203.25" y="345.96" width="35.35" height="29.71" rx="2.83" ry="2.83"/>
    <rect class="cls-4" x="206.09" y="348.79" width="29.68" height="24.04"/>
  </g>
</svg>